<svg width="116" height="411" viewBox="0 0 116 411" fill="none" xmlns="http://www.w3.org/2000/svg">
<path fill-rule="evenodd" clip-rule="evenodd" d="M19.2907 406.23C19.9592 393.099 7.64543 372.128 7.64543 372.128C5.74836 371.55 0 377.937 0 377.937L14.4909 409.052L19.2907 406.23Z" fill="#5D5D7D"/>
<path fill-rule="evenodd" clip-rule="evenodd" d="M8.22259 388.525C8.22259 388.525 2.84565 375.011 5.48555 373.503C9.26827 371.332 14.7823 362.555 14.7823 362.555L21.5649 363.62C20.0564 373.247 15.2509 385.478 15.0109 388.708C14.8966 390.295 8.22259 388.525 8.22259 388.525Z" fill="#FFECB3"/>
<path fill-rule="evenodd" clip-rule="evenodd" d="M102.647 402.101C96.6247 397.393 71.3742 400.276 71.3742 400.276C70.1342 402.052 70.0942 410.853 70.0942 410.853L102.87 410.95C102.87 410.95 104.79 403.767 102.647 402.101Z" fill="#5D5D7D"/>
<path fill-rule="evenodd" clip-rule="evenodd" d="M84.2827 406.504C84.2827 406.504 71.5746 406.571 71.5118 403.122C71.4203 398.19 71.9403 390.569 71.9403 390.569C71.9403 390.569 80.9285 389.316 81.0828 392.199C81.54 401.219 84.8998 397.746 87.294 399.351C88.4597 400.13 84.2827 406.504 84.2827 406.504Z" fill="#FFECB3"/>
<path fill-rule="evenodd" clip-rule="evenodd" d="M16.5421 56.1177C18.2906 76.1885 37.1128 67.6189 53.6836 77.5691C69.0087 86.7591 83.1567 62.1451 83.1567 41.9405C83.1567 21.736 79.2712 0.619141 62.0661 0.619141C44.861 0.619141 15.765 47.1893 16.5421 56.1177Z" fill="#694A52"/>
<path fill-rule="evenodd" clip-rule="evenodd" d="M17.8682 379.481L10.7827 367.719L40.3587 293.615C40.3587 293.615 21.668 260.772 19.3195 237.162C17.2453 216.325 22.4108 203.954 22.4108 203.954L60.9923 202.269C60.9923 202.269 59.278 209.945 58.9923 238.883C58.8952 249.003 65.6321 284.054 61.8494 302.708C60.2837 310.146 25.3765 377.56 17.8682 379.481Z" fill="#5D5D7D"/>
<path fill-rule="evenodd" clip-rule="evenodd" d="M82.3914 395.362H70.6547C70.6547 395.362 65.5977 271.653 61.2093 255.536C53.5353 227.345 57.5695 200.87 57.5695 200.87H84.7684C84.7684 200.87 95.3509 267.529 95.088 296.462C94.8938 317.475 82.3914 395.362 82.3914 395.362Z" fill="#5D5D7D"/>
<path fill-rule="evenodd" clip-rule="evenodd" d="M40.9067 96.7032L77.0711 98.3332L66.86 54.3905L52.4949 50.5405L40.9067 96.7032Z" fill="#FFDFAE"/>
<path fill-rule="evenodd" clip-rule="evenodd" d="M85.5567 204.751H43.1411V84.4722C64.3517 112.06 74.4257 84.4722 74.4257 84.4722L85.5567 204.751Z" fill="#E0F5FF"/>
<path fill-rule="evenodd" clip-rule="evenodd" d="M48.7412 202.002C62.5064 185.878 49.5755 163.806 49.4326 140.974C49.3983 135.063 47.507 125.83 47.0899 119.931C46.6899 114.238 45.9013 102.366 44.6957 96.8492C43.5243 91.5213 46.6042 76.7298 46.7642 73.3421C43.3757 74.297 42.9814 74.8991 38.3645 76.7055C28.1363 80.7135 17.2224 82.4591 16.531 87.3004C14.2454 103.199 26.7306 166.762 26.7306 166.762L16.2339 204.72C16.2339 204.72 41.9986 209.951 48.7412 202.002Z" fill="#ADADEA"/>
<path fill-rule="evenodd" clip-rule="evenodd" d="M71.4312 74.072C80.9337 77.7698 90.8818 87.0936 95.6531 93.8568C95.6857 93.9031 95.8183 94.0615 96.0362 94.3219C99.029 97.8973 118.113 120.696 115.252 136.218C113.612 145.171 95.4988 166.738 89.6133 173.556C90.0133 191.224 90.5504 204.769 90.5504 204.769C90.5504 204.769 84.7107 206.332 81.2079 205.602C71.6698 203.595 73.748 184.992 75.6407 168.048C76.3696 161.524 77.0709 155.245 77.0709 150.256C77.0676 144.392 76.2438 129.374 75.5116 116.025C75.0049 106.789 74.5422 98.3526 74.4253 94.3008C74.1682 85.3602 71.4312 74.072 71.4312 74.072ZM89.6875 113.113C89.1161 125.459 89.1047 141.747 89.3104 157.159L100.979 133.439L89.6875 113.113Z" fill="#9499EA"/>
<path fill-rule="evenodd" clip-rule="evenodd" d="M80.963 117.042L71.5976 115.217C70.6887 115.111 69.8615 115.782 69.7177 116.743L64.8321 138.335C64.5179 139.728 65.3578 141.108 66.5006 141.059L75.5117 140.701C76.2657 140.623 76.8878 140.04 77.0545 139.253L82.2943 119.845C82.6372 118.586 81.9972 117.242 80.963 117.042Z" fill="#30312C"/>
<path fill-rule="evenodd" clip-rule="evenodd" d="M75.1399 139.813C73.86 143.352 63.7804 148.151 63.7804 148.151L61.1919 140.281C61.1919 140.281 66.0374 130.075 69.123 131.304C71.083 132.058 75.9571 137.593 75.1399 139.813Z" fill="#FFECB3"/>
<path fill-rule="evenodd" clip-rule="evenodd" d="M65.5975 147.324C65.5975 147.324 24.1477 175.034 17.7765 167.918C4.89125 153.522 16.5194 87.3186 16.5194 87.3186C26.8047 84.8858 28.1304 112.766 28.1304 112.766C28.1304 112.766 28.2218 139.15 27.0561 147.531L61.072 139.91L65.5975 147.324Z" fill="#9499EA"/>
<path fill-rule="evenodd" clip-rule="evenodd" d="M71.1862 62.51C71.1862 62.51 59.8838 52.7787 52.3869 50.869C52.3869 50.869 50.7927 57.4254 48.9585 64.6265C51.2898 70.07 62.2609 75.6411 66.9635 76.2919C70.752 76.821 71.1862 62.51 71.1862 62.51Z" fill="#F4CA92"/>
<path fill-rule="evenodd" clip-rule="evenodd" d="M48.7407 48.0165C48.7407 33.7784 55.0262 25.6832 60.0432 25.6832C60.0432 25.6832 58.2432 34.9887 61.426 36.4728C67.1972 39.161 80.071 36.9289 80.071 43.163C80.071 57.4071 70.4828 71.2073 68.4143 71.2073C63.3687 71.2012 48.7407 62.2606 48.7407 48.0165Z" fill="#FFDFAE"/>
<path fill-rule="evenodd" clip-rule="evenodd" d="M83.7111 178.969L86.4653 176.208L83.0368 166.768L80.4141 170.752L83.7111 178.969Z" fill="#FFECB3"/>
<path fill-rule="evenodd" clip-rule="evenodd" d="M85.9624 186.018C83.6768 186.018 78.5684 182.247 78.5684 177.594C78.5684 172.942 77.4256 169.171 79.7112 169.171C81.9969 169.171 88.2309 186.018 85.9624 186.018Z" fill="#9499EA"/>
</svg>
