<svg width="292" height="562" viewBox="0 0 292 562" fill="none" xmlns="http://www.w3.org/2000/svg">
<path fill-rule="evenodd" clip-rule="evenodd" d="M46.826 3.77283e-07H245.876C271.349 3.77283e-07 292 21.9802 292 49.0942V511.937C292.001 524.959 287.142 537.448 278.492 546.656C269.842 555.864 258.109 561.038 245.876 561.038H46.826C34.5912 561.039 22.857 555.867 14.2057 546.658C5.55437 537.45 0.694774 524.96 0.696289 511.937V49.0942C0.696289 36.0726 5.55655 23.5843 14.2077 14.3772C22.8589 5.17009 34.5922 -0.00161281 46.826 3.77283e-07V3.77283e-07Z" fill="#56557E"/>
<path fill-rule="evenodd" clip-rule="evenodd" d="M247.218 544.294H45.4831C25.661 544.294 9.4502 526.802 9.4502 505.418V48.5712C9.4502 27.1807 25.661 9.68874 45.4831 9.68874H54.3571C56.1202 9.70089 57.5588 11.1946 57.6141 13.0703C57.7512 16.6223 56.8941 29.7595 60.3283 29.802C66.688 29.8872 232.642 29.5831 233.133 29.1938C235.156 27.6855 234.133 15.8133 234.276 12.9852C234.352 11.1305 235.783 9.66629 237.527 9.65833H247.241C267.058 9.65833 283.274 27.1564 283.274 48.5408V505.387C283.251 526.802 267.035 544.294 247.218 544.294Z" fill="#E5E8F5"/>
<path fill-rule="evenodd" clip-rule="evenodd" d="M9.4502 141.523V48.0421C9.50669 26.8851 25.6061 9.74891 45.4831 9.68877H54.3571C56.1088 9.69066 57.5466 11.1646 57.6141 13.0278C57.7512 16.5311 56.1627 29.4493 67.9394 29.4128C74.2935 29.4128 224.659 28.756 225.254 28.756C235.099 28.756 234.133 15.7526 234.259 12.9427C234.35 11.1006 235.783 9.65864 237.516 9.66445H247.23C267.106 9.7279 283.203 26.8622 283.263 48.0178V141.499L9.4502 141.523Z" fill="#8F97B9"/>
<path fill-rule="evenodd" clip-rule="evenodd" d="M169.358 411.067H254.858C262.218 411.07 268.183 417.422 268.183 425.256V516.256C268.183 524.089 262.217 530.439 254.858 530.439H169.358C161.999 530.439 156.033 524.089 156.033 516.256V425.256C156.033 417.422 161.998 411.07 169.358 411.067Z" fill="white"/>
<path fill-rule="evenodd" clip-rule="evenodd" d="M243.613 474.807C239.487 471.03 204.346 455.417 204.346 455.417C199.592 455.587 199.603 464.905 195.569 464.583C188.381 464.011 185.324 458.914 183.347 459.717C176.97 462.241 179.347 485.341 179.347 485.341L244.716 485.085C244.716 485.085 246.053 477.039 243.613 474.807Z" fill="#8F97B9"/>
<path fill-rule="evenodd" clip-rule="evenodd" d="M179.278 481.12C179.198 484.659 179.358 485.328 179.358 485.328L244.727 485.067C244.727 485.067 245.578 483.498 245.087 480.347C244.887 479.076 179.278 481.12 179.278 481.12Z" fill="#BBC0D6"/>
<path fill-rule="evenodd" clip-rule="evenodd" d="M36.8491 410.544H122.349C129.708 410.544 135.674 416.894 135.674 424.727V515.733C135.674 523.566 129.708 529.916 122.349 529.916H36.8491C29.4898 529.916 23.5239 523.566 23.5239 515.733V424.727C23.5239 416.894 29.4898 410.544 36.8491 410.544Z" fill="white"/>
<path fill-rule="evenodd" clip-rule="evenodd" d="M97.1956 466.012C97.1956 466.012 102.733 461.268 90.2359 455.374C87.6131 454.158 57.2314 476.4 45.6661 478.152C42.8834 478.577 42.4491 482.902 43.8662 483.954C49.9117 488.436 116.018 481.028 116.018 481.028C117.326 478.638 113.846 461.724 112.018 463.287C108.544 466.255 97.1956 466.012 97.1956 466.012Z" fill="#BBC0D6"/>
<path fill-rule="evenodd" clip-rule="evenodd" d="M97.2009 466.012C97.2009 466.012 102.732 461.268 90.2355 455.374C87.6127 454.158 57.231 476.4 45.6657 478.152C42.883 478.577 116.583 477.543 115.709 473.353C114.772 468.828 112.966 462.472 112.012 463.281C108.543 466.255 97.2009 466.012 97.2009 466.012Z" fill="#8F97B9"/>
<path fill-rule="evenodd" clip-rule="evenodd" d="M169.358 268.394H254.858C262.217 268.394 268.183 274.744 268.183 282.578V373.583C268.183 381.416 262.217 387.766 254.858 387.766H169.358C165.824 387.766 162.435 386.272 159.936 383.612C157.437 380.952 156.033 377.345 156.033 373.583V282.578C156.033 274.744 161.999 268.394 169.358 268.394Z" fill="white"/>
<path fill-rule="evenodd" clip-rule="evenodd" d="M246.43 342.224L177.764 342.157C177.764 342.157 177.192 337.669 179.227 334.129L244.761 333.125L246.43 342.224Z" fill="#8F97B9"/>
<path fill-rule="evenodd" clip-rule="evenodd" d="M179.221 334.147C183.484 326.849 197.095 328.369 206.077 319.149C213.185 311.85 220.499 313.675 220.499 313.675C220.499 313.675 223.928 323.814 232.825 322.677C237.127 322.129 236.253 318.583 238.693 317.099C239.72 316.513 240.979 316.658 241.864 317.464L245.693 338.362L177.695 339.329C177.987 335.674 179.221 334.147 179.221 334.147Z" fill="#8F97B9"/>
<path fill-rule="evenodd" clip-rule="evenodd" d="M36.8491 267.853H122.349C129.708 267.853 135.674 274.203 135.674 282.036V373.072C135.674 380.907 129.709 387.258 122.349 387.262H36.8491C29.4889 387.258 23.5239 380.907 23.5239 373.072V282.055C23.5194 278.29 24.9213 274.678 27.4207 272.014C29.9202 269.35 33.3121 267.853 36.8491 267.853V267.853Z" fill="white"/>
<path fill-rule="evenodd" clip-rule="evenodd" d="M102.961 347.528C102.389 343.003 91.8869 345.734 85.7557 342.054C72.6477 334.238 58.7853 322.068 58.7853 322.068H56.2769V351.554H64.6708V336.805C64.6708 336.805 77.8132 351.067 84.1329 352.582C89.8642 353.981 103.704 353.141 102.961 347.528Z" fill="#8F97B9"/>
<path fill-rule="evenodd" clip-rule="evenodd" d="M67.9854 302.484L83.922 309.783L83.6134 335.163C83.6134 335.163 90.3732 341.963 95.5044 342.34C101.253 342.759 103.955 346.78 102.961 347.96C99.9556 351.536 88.8418 351.359 84.6019 349.723C75.5451 346.214 62.2199 331.277 56.7401 323.26C53.546 318.602 67.9854 302.484 67.9854 302.484Z" fill="#8F97B9"/>
<path fill-rule="evenodd" clip-rule="evenodd" d="M125.028 166.891H166.684C174.043 166.891 180.009 173.241 180.009 181.074V225.412C180.009 233.247 174.044 239.599 166.684 239.602H125.028C121.491 239.602 118.099 238.105 115.6 235.441C113.1 232.777 111.699 229.165 111.703 225.4V181.062C111.703 173.228 117.668 166.876 125.028 166.873V166.891Z" fill="white"/>
<path fill-rule="evenodd" clip-rule="evenodd" d="M156.33 225.133L136.754 225.218L137.748 199.187L131.462 202.398L125.954 192.326L137.382 181.835H141.496C141.496 181.835 141.902 186.092 146.999 185.958C150.159 185.873 152.142 181.81 152.142 181.81H156.096L166.953 189.966L163.484 200.002L156.056 198.755L156.33 225.133Z" fill="#BBC0D6"/>
<path fill-rule="evenodd" clip-rule="evenodd" d="M213.203 166.891H254.858C262.217 166.891 268.183 173.241 268.183 181.074V225.412C268.183 233.247 262.218 239.599 254.858 239.602H213.203C205.842 239.602 199.875 233.253 199.872 225.419V181.081C199.872 173.244 205.84 166.891 213.203 166.891V166.891Z" fill="white"/>
<path fill-rule="evenodd" clip-rule="evenodd" d="M247.818 226.13H243.19L234.167 192.332L226.853 226.13H220.511L223.436 180.88H245.15L247.818 226.13Z" fill="#BBC0D6"/>
<path fill-rule="evenodd" clip-rule="evenodd" d="M36.8491 166.891H78.5047C85.8649 166.891 91.8325 173.24 91.8356 181.074V225.413C91.8325 233.248 85.8659 239.599 78.5047 239.602H36.8491C29.4898 239.602 23.5239 233.252 23.5239 225.419V181.081C23.5239 173.246 29.4889 166.895 36.8491 166.891Z" fill="white"/>
<path fill-rule="evenodd" clip-rule="evenodd" d="M37.2891 194.333H52.8028C56.6197 197.934 60.8196 201.047 65.3167 203.608C70.4593 206.43 76.4077 204.454 78.6304 210.116C78.8819 210.724 78.6304 212.89 78.6304 212.89H36.4092V210.116L37.2891 194.333Z" fill="#BBC0D6"/>
<path opacity="0.2" fill-rule="evenodd" clip-rule="evenodd" d="M30.1865 96.5038H261.521C265.2 96.5038 268.183 99.6788 268.183 103.595V120.467C268.183 124.384 265.2 127.559 261.521 127.559H30.1865C26.5069 127.559 23.5239 124.384 23.5239 120.467V103.595C23.5239 99.6788 26.5069 96.5038 30.1865 96.5038V96.5038Z" fill="#E5E8F5"/>
<path fill-rule="evenodd" clip-rule="evenodd" d="M30.4951 44.3928H135.291C138.971 44.3928 141.954 47.5679 141.954 51.4845C141.954 55.4011 138.971 58.5761 135.291 58.5761H30.4951C26.8155 58.5761 23.8325 55.4011 23.8325 51.4845C23.8325 47.5679 26.8155 44.3928 30.4951 44.3928Z" fill="#E5E8F5"/>
<path fill-rule="evenodd" clip-rule="evenodd" d="M30.4951 70.4482H206.648C210.328 70.4482 213.311 73.6233 213.311 77.5399C213.311 81.4565 210.328 84.6316 206.648 84.6316H30.4951C26.8155 84.6316 23.8325 81.4565 23.8325 77.5399C23.8325 73.6233 26.8155 70.4482 30.4951 70.4482Z" fill="#E5E8F5"/>
</svg>
